# xmcd
#
# Track frame offsets: 
#        150
#        5686
#        20670
#        39326
#        62843
#        79315
#        99977
#        118858
#
# Disc length: 1801 seconds
#
# Revision: 0
# Processed by: cddbd v1.5.2PL0 Copyright (c) Steve Scherf et al.
# Submitted via: ExactAudioCopy v1.0b1
#
DISCID=62070708
DTITLE=李志 - 梵高先生
DYEAR=2007
DGENRE=Folk/Rock
TTITLE0=你离开了南京,从此没有人和我说话(乐曲)
TTITLE1=董卓瑶
TTITLE2=春末的南方城市
TTITLE3=来了
TTITLE4=暧昧
TTITLE5=想起了他
TTITLE6=梵高先生
TTITLE7=斜
EXTD=
EXTT0=
EXTT1=
EXTT2=
EXTT3=
EXTT4=
EXTT5=
EXTT6=
EXTT7=
PLAYORDER=
